<svg id="Calque_1" data-name="Calque 1" xmlns="http://www.w3.org/2000/svg" viewBox="0 0 315.6 277.92"><path d="M298.45,556.19q.57-6.5,1.15-13,.54-6,1.1-11.91.68-7.34,1.36-14.66.53-5.78,1-11.56.67-7.44,1.36-14.89.53-5.79,1-11.57.69-7.5,1.37-15,.52-6,1-11.92.68-7.46,1.36-14.9c.35-3.81.64-7.63,1.05-11.44.89-8.27,1.19-16.63,3.9-24.62A54.45,54.45,0,0,1,335.31,373q40.19-28,80.46-55.79c10.73-7.45,21.36-15,32.05-22.55a25.7,25.7,0,0,1,3.28-1.94,2.47,2.47,0,0,1,3,.56,2.51,2.51,0,0,1,.56,2.87,17.53,17.53,0,0,1-1.32,2.68Q417.22,362.4,381.11,426,344,491.37,306.79,556.75a20.92,20.92,0,0,1-2.51,3.48,3.19,3.19,0,0,1-3.69,1c-1.48-.57-2-1.89-2-3.37,0-.56,0-1.12,0-1.68Zm25.86-69.43a3,3,0,0,0,0,.69c.14.37.31.72.46,1.08.32-.25.64-.48.93-.74a1.64,1.64,0,0,0,.24-.41q36.18-63.66,72.34-127.32c1.76-3.09,3.53-6.17,5.25-9.28a3.92,3.92,0,0,0,.23-1.26,5,5,0,0,0-1.29.29,13.85,13.85,0,0,0-1.8,1.17c-19,13.7-38,27.46-57.1,41.07a26.89,26.89,0,0,0-10.85,16.22c-2.11,8.8-2.4,17.84-3.36,26.79-.48,4.4-.87,8.81-1.3,13.22L326.71,462l-1,10.84C325.2,477.52,324.74,482.25,324.31,486.76Z" transform="translate(-139.25 -283.59)" style="fill:#8b61ff"/><path d="M295.61,556.52a17.24,17.24,0,0,1-.31,2.42c-.65,2.5-3,3.38-5,1.72a12.81,12.81,0,0,1-2.83-3.5c-5.73-10-11.38-20-17.06-30Q205.5,412.89,140.6,298.6a10.41,10.41,0,0,1-1.28-2.93,2.54,2.54,0,0,1,3.5-3,11.1,11.1,0,0,1,2.51,1.36l112.52,78.31c10.81,7.52,18.61,17.27,22.46,30a71.41,71.41,0,0,1,2.53,14.21c.41,4.53.91,9,1.34,13.58.37,3.85.69,7.7,1,11.56q.69,7.5,1.37,15c.35,3.9.68,7.79,1,11.68q.67,7.45,1.36,14.9.52,5.84,1,11.68.68,7.4,1.36,14.78c.35,3.85.68,7.71,1,11.56q.68,7.38,1.36,14.77.53,5.73,1,11.45C295.08,550.48,295.34,553.46,295.61,556.52Zm-25.82-68.85c-.46-4.88-.88-9.45-1.32-14-.51-5.27-1.06-10.55-1.57-15.83s-1-10.56-1.52-15.83-1-10.64-1.61-15.95-1.08-10.4-2-15.53A27.84,27.84,0,0,0,250,391.69c-14.77-10.39-29.33-21.06-44-31.61Q199,355,191.88,350a5.39,5.39,0,0,0-1.61-.47,6,6,0,0,0,.41,1.57q25.29,44.58,50.61,89.13,13.46,23.68,26.93,47.37a4.67,4.67,0,0,0,1,.94Z" transform="translate(-139.25 -283.59)" style="fill:#8b61ff"/><path d="M296.35,283.64h51.56c12.18,0,24.37.06,36.56.07,11.71,0,23.42,0,35.12,0,8.68,0,17.35,0,26,0a11.2,11.2,0,0,1,3.85.69c2.43.93,2.91,3.45,1,5.16a16.16,16.16,0,0,1-4,2.38q-46.21,21-92.46,41.86c-11.72,5.3-23.49,10.5-35.2,15.84-16.76,7.63-33.31,7.17-49.83-.82q-46.86-22.68-93.79-45.23c-9.51-4.57-19.09-9-28.63-13.48a21.46,21.46,0,0,1-2.8-1.59,2.51,2.51,0,0,1-1.07-2.84,2.39,2.39,0,0,1,2.16-1.95,15.78,15.78,0,0,1,2.38-.16H296.35Zm.1,17.57v0H253.3l-35-.08a6.46,6.46,0,0,0-1.32.06.86.86,0,0,0-.58.46.83.83,0,0,0,.33.67,16.7,16.7,0,0,0,2,1.11q32.55,15,65.12,29.91a27.92,27.92,0,0,0,4.38,1.59,27.33,27.33,0,0,0,17-1.36c6.81-2.63,13.5-5.58,20.18-8.52q24.45-10.78,48.84-21.7a15.1,15.1,0,0,0,1.62-.78c.22-.14.51-.57.44-.71a1.56,1.56,0,0,0-.76-.58,1.86,1.86,0,0,0-.71,0Z" transform="translate(-139.25 -283.59)" style="fill:#8b61ff"/></svg>